PathFileType	4	(x/y/z)	S06_M20_T14
DataRate	CameraRate	NumFrames	NumMarkers	Units	OrigDataRate	OrigDataStartFrame	OrigNumFrames
240	240	10	51	mm	240	184	488
Frame#	Time	Sternum			R.Acromium			L.Acromium			Top.Head			R.ASIS			L.ASIS			R.PSIS			L.PSIS			R.Great.Tro			L.Great.Tro			R.Iliac.Crest			L.Iliac.Crest			V.Sacral			R.Thigh.Upper.Post			R.Thigh.Lower.Ant			R.Thigh.Lower.Post			R.Thigh.Upper.Ant			R.Knee.Lat			R.Knee.Med			R.Shank.Upper.Post			R.Shank.Lower.Ant			R.Shank.Lower.Post			R.Shank.Upper.Ant			R.Ankle.Lat			R.Ankle.Med			R.Heel.Upper			R.Heel.Med			R.Heel.Lat			R.Toe.Lat			R.Toe.Med			R.Toe.Tip			L.Thigh.Upper.Post			L.Thigh.Lower.Ant			L.Thigh.Lower.Post			L.Thigh.Upper.Ant			L.Knee.Lat			L.Knee.Med			L.Shank.Upper.Post			L.Shank.Lower.Ant			L.Shank.Lower.Post			L.Shank.Upper.Ant			L.Ankle.Lat			L.Ankle.Med			L.Heel.Upper			L.Heel.Med			L.Heel.Lat			L.Toe.Lat			L.Toe.Med			L.Toe.Tip			Cervical.Spine			Back			
		X1	Y1	Z1	X2	Y2	Z2	X3	Y3	Z3	X4	Y4	Z4	X5	Y5	Z5	X6	Y6	Z6	X7	Y7	Z7	X8	Y8	Z8	X9	Y9	Z9	X10	Y10	Z10	X11	Y11	Z11	X12	Y12	Z12	X13	Y13	Z13	X14	Y14	Z14	X15	Y15	Z15	X16	Y16	Z16	X17	Y17	Z17	X18	Y18	Z18	X19	Y19	Z19	X20	Y20	Z20	X21	Y21	Z21	X22	Y22	Z22	X23	Y23	Z23	X24	Y24	Z24	X25	Y25	Z25	X26	Y26	Z26	X27	Y27	Z27	X28	Y28	Z28	X29	Y29	Z29	X30	Y30	Z30	X31	Y31	Z31	X32	Y32	Z32	X33	Y33	Z33	X34	Y34	Z34	X35	Y35	Z35	X36	Y36	Z36	X37	Y37	Z37	X38	Y38	Z38	X39	Y39	Z39	X40	Y40	Z40	X41	Y41	Z41	X42	Y42	Z42	X43	Y43	Z43	X44	Y44	Z44	X45	Y45	Z45	X46	Y46	Z46	X47	Y47	Z47	X48	Y48	Z48	X49	Y49	Z49	X50	Y50	Z50	X51	Y51	Z51	

184	0.7625	-559.14	1277.5	340.7	-705.26	1472.6	512.22	-705.6	1477.4	160.62	-671.69	1794.8	340.18	-582.36	1041.4	454.74	-582.56	1032.5	200.79	NaN	NaN	NaN	-784.91	1055.5	286.71	-631.12	965.13	505.41	-693.91	966.84	149.61	-673.04	1105.3	491.2	-658.62	1105.7	168.05	-797.47	1017.8	330.09	-579.61	720.23	488.89	-507.12	655.96	449.95	-572.11	634.11	463.91	-511.93	745.31	470.63	-522.86	535.19	450.22	-519.75	542.86	320.5	-517.63	302.34	436.39	-442.27	253.91	420.59	-503.66	227.1	418.99	-458.2	327.72	436.14	-438.88	105.9	392.88	-415.27	122.98	312.24	-482.06	64.39	332.85	-464.92	38.447	301.9	-473.62	32.235	365.98	-303.67	54.83	423.55	-275.08	89.1	314.26	-219.9	117.47	368.76	-721.5	715.07	161.57	-688.68	618.02	202.33	-760.88	634.25	175.68	-652.9	704.78	183.09	-813.58	548.06	193.51	-762.45	531.22	304.76	-984.25	388.96	215.75	-971.09	302.27	208.68	-1030.6	334.38	234.93	-928.41	357.85	195.06	-1076.1	190.93	230.4	-1048.1	199.58	316.87	-1152.2	212.73	278.4	-1167.4	193.26	313.09	-1166.8	189.29	251.1	-1050.7	55.619	219.52	-1034.8	57.56	338.7	-973.01	39.319	289.88	-760.01	1526	336.41	-800.7	1248.4	330.34
185	0.76667	-553.22	1278.1	340.95	-699.42	1472.9	512.71	-700.23	1477.7	161.08	-666.25	1795.2	340.66	-576.27	1042.2	455.16	-576.52	1032.7	201.26	NaN	NaN	NaN	-778.8	1055.8	287.15	-625.15	966.07	506.01	-687.76	966.62	150.25	-666.87	1105.9	491.64	-652.56	1105.9	168.39	-791.39	1018.2	330.64	-574.2	720.94	489.69	-501.78	656.46	450.8	-566.8	634.73	464.82	-506.39	745.8	471.44	-518.08	535.51	451.06	-514.64	543.3	321.37	-514.58	302.52	436.91	-439.57	253.6	421.25	-501.18	227.23	419.49	-454.93	327.48	436.85	-437.39	105.6	393.2	-413.63	122.64	312.67	-481.02	64.906	333.09	-464.43	38.906	302.05	-473.17	32.596	366.12	-302.74	52.742	423.54	-273.84	86.969	314.26	-218.15	114.35	368.77	-713.86	714.58	161.36	-680.12	617.6	201.49	-752.58	633.41	175.18	-645.04	704.69	182.51	-804.8	547.18	192.75	-752.9	529.74	303.6	-976.87	390.17	215.21	-965.16	303.48	207.79	-1023.7	336.16	234.38	-921.45	358.44	194.17	-1071	193.23	229.57	-1042.9	201.52	315.94	-1145.9	217.31	277.6	-1161.5	198.5	312.43	-1161.2	194.19	250.48	-1049.3	57.021	219.37	-1033	58.973	338.44	-972.4	38.88	289.69	-754.47	1526.3	336.97	-794.65	1248.6	330.9
186	0.77083	-547.34	1278.7	341.21	-693.58	1473.3	513.19	-694.86	1478.1	161.53	-660.82	1795.6	341.14	-570.25	1042.9	455.61	-570.53	1033	201.76	NaN	NaN	NaN	-772.75	1056.1	287.57	-619.27	967.02	506.62	-681.62	966.39	150.88	-660.78	1106.6	492.08	-646.52	1106.1	168.73	-785.36	1018.7	331.16	-568.83	721.65	490.52	-496.48	656.97	451.71	-561.53	635.37	465.76	-500.91	746.3	472.33	-513.32	535.84	451.93	-509.47	543.78	322.29	-511.56	302.74	437.49	-436.92	253.32	421.94	-498.74	227.4	420.03	-451.69	327.27	437.58	-435.98	105.32	393.54	-412.07	122.35	313.1	-480.04	65.393	333.34	-463.97	39.365	302.22	-472.73	32.94	366.27	-301.9	50.776	423.57	-272.68	84.946	314.26	-216.52	111.35	368.79	-706.11	714.05	161.14	-671.41	617.16	200.65	-744.13	632.52	174.68	-637.06	704.61	181.94	-795.84	546.25	191.95	-743.2	528.23	302.42	-969.25	391.36	214.58	-959.06	304.7	206.87	-1016.7	337.93	233.75	-914.27	359	193.25	-1065.7	195.58	228.7	-1037.5	203.49	314.99	-1139.3	221.97	276.72	-1155.3	203.82	311.67	-1155.4	199.19	249.77	-1047.8	58.574	219.2	-1031.1	60.526	338.15	-971.72	38.396	289.47	-748.93	1526.6	337.52	-788.65	1248.9	331.44
187	0.775	-541.5	1279.2	341.47	-687.74	1473.7	513.67	-689.49	1478.5	161.97	-655.41	1795.9	341.61	-564.31	1043.7	456.1	-564.6	1033.2	202.29	NaN	NaN	NaN	-766.75	1056.4	287.96	-613.48	967.97	507.24	-675.49	966.15	151.52	-654.79	1107.2	492.51	-640.5	1106.2	169.07	-779.4	1019.1	331.66	-563.52	722.37	491.38	-491.22	657.5	452.69	-556.32	636.01	466.71	-495.49	746.81	473.29	-508.59	536.2	452.82	-504.24	544.31	323.26	-508.56	302.99	438.1	-434.3	253.06	422.63	-496.34	227.6	420.6	-448.48	327.08	438.32	-434.63	105.08	393.89	-410.59	122.1	313.55	-479.12	65.851	333.59	-463.53	39.819	302.38	-472.32	33.266	366.42	-301.12	48.942	423.65	-271.6	83.03	314.27	-214.99	108.48	368.81	-698.25	713.48	160.91	-662.57	616.71	199.83	-735.55	631.58	174.16	-628.98	704.52	181.38	-786.69	545.26	191.13	-733.36	526.7	301.23	-961.38	392.54	213.86	-952.79	305.91	205.94	-1009.4	339.7	233.04	-906.85	359.53	192.3	-1060.2	197.97	227.79	-1032	205.52	314.01	-1132.3	226.69	275.76	-1148.9	209.21	310.83	-1149.2	204.26	249	-1046.1	60.279	218.99	-1029	62.219	337.82	-970.96	37.867	289.21	-743.39	1526.9	338.07	-782.69	1249.2	331.96
188	0.77917	-535.69	1279.8	341.72	-681.9	1474.1	514.13	-684.12	1478.9	162.41	-650	1796.3	342.07	-558.43	1044.5	456.61	-558.71	1033.5	202.85	NaN	NaN	NaN	-760.82	1056.7	288.32	-607.78	968.91	507.87	-669.37	965.91	152.16	-648.88	1107.8	492.93	-634.52	1106.4	169.41	-773.51	1019.5	332.12	-558.25	723.08	492.26	-486.02	658.02	453.72	-551.17	636.66	467.68	-490.14	747.31	474.32	-503.89	536.56	453.72	-498.97	544.86	324.27	-505.6	303.27	438.75	-431.73	252.83	423.31	-493.98	227.84	421.19	-445.3	326.91	439.07	-433.35	104.86	394.23	-409.19	121.9	313.99	-478.25	66.28	333.84	-463.12	40.263	302.55	-471.94	33.575	366.57	-300.41	47.246	423.76	-270.61	81.219	314.27	-213.57	105.73	368.82	-690.28	712.88	160.66	-653.6	616.27	199.03	-726.82	630.61	173.64	-620.8	704.45	180.84	-777.36	544.23	190.29	-723.4	525.18	300.06	-953.28	393.7	213.07	-946.34	307.13	204.99	-1001.8	341.47	232.26	-899.19	360.04	191.35	-1054.5	200.4	226.84	-1026.2	207.58	313.02	-1125.2	231.44	274.72	-1142.1	214.66	309.91	-1142.8	209.39	248.14	-1044.3	62.135	218.75	-1026.7	64.049	337.44	-970.12	37.3	288.93	-737.86	1527.2	338.61	-776.78	1249.5	332.47
189	0.78333	-529.94	1280.3	341.98	-676.08	1474.5	514.59	-678.75	1479.3	162.84	-644.6	1796.7	342.52	-552.62	1045.3	457.16	-552.88	1033.7	203.44	NaN	NaN	NaN	-754.95	1057	288.67	-602.17	969.85	508.51	-663.25	965.68	152.81	-643.07	1108.5	493.35	-628.58	1106.6	169.76	-767.67	1020	332.57	-553.05	723.77	493.16	-480.88	658.54	454.79	-546.09	637.31	468.65	-484.85	747.8	475.4	-499.24	536.93	454.63	-493.68	545.45	325.3	-502.67	303.58	439.42	-429.2	252.62	423.98	-491.66	228.1	421.8	-442.15	326.76	439.82	-432.13	104.67	394.57	-407.87	121.73	314.42	-477.44	66.682	334.08	-462.74	40.692	302.72	-471.58	33.867	366.72	-299.77	45.694	423.89	-269.69	79.51	314.25	-212.25	103.11	368.8	-682.21	712.25	160.41	-644.5	615.82	198.26	-717.95	629.59	173.11	-612.53	704.37	180.34	-767.85	543.15	189.43	-713.34	523.66	298.92	-944.95	394.85	212.2	-939.71	308.35	204.04	-994.09	343.22	231.4	-891.31	360.53	190.38	-1048.5	202.88	225.87	-1020.3	209.68	312.03	-1117.7	236.22	273.63	-1135.1	220.14	308.91	-1136.1	214.57	247.22	-1042.2	64.138	218.48	-1024.3	66.01	337.02	-969.16	36.699	288.62	-732.33	1527.6	339.14	-770.92	1249.8	332.96
190	0.7875	-524.22	1280.9	342.23	-670.26	1474.9	515.03	-673.39	1479.8	163.26	-639.21	1797.1	342.97	-546.88	1046.2	457.73	-547.1	1034	204.04	NaN	NaN	NaN	-749.15	1057.4	289	-596.64	970.77	509.15	-657.14	965.44	153.45	-637.34	1109.1	493.76	-622.68	1106.8	170.11	-761.91	1020.4	333	-547.92	724.45	494.08	-475.81	659.04	455.9	-541.1	637.95	469.62	-479.63	748.27	476.54	-494.63	537.31	455.53	-488.41	546.05	326.35	-499.78	303.91	440.1	-426.71	252.44	424.63	-489.39	228.39	422.4	-439.05	326.63	440.55	-430.98	104.51	394.9	-406.62	121.59	314.83	-476.69	67.056	334.3	-462.38	41.102	302.88	-471.25	34.143	366.86	-299.19	44.289	424.05	-268.84	77.903	314.21	-211.02	100.63	368.75	-674.03	711.59	160.16	-635.28	615.39	197.54	-708.95	628.55	172.59	-604.16	704.31	179.87	-758.17	542.05	188.56	-703.19	522.17	297.82	-936.38	395.98	211.26	-932.87	309.57	203.08	-986.12	344.96	230.48	-883.2	360.99	189.42	-1042.3	205.38	224.87	-1014.2	211.81	311.03	-1109.9	241	272.48	-1127.8	225.63	307.83	-1129	219.78	246.23	-1039.9	66.282	218.17	-1021.7	68.094	336.54	-968.08	36.072	288.27	-726.81	1527.9	339.66	-765.11	1250.1	333.44
191	0.79167	-518.55	1281.4	342.47	-664.44	1475.4	515.46	-668.03	1480.2	163.68	-633.83	1797.5	343.41	-541.21	1047	458.33	-541.39	1034.3	204.67	NaN	NaN	NaN	-743.41	1057.7	289.32	-591.18	971.68	509.79	-651.03	965.2	154.1	-631.7	1109.8	494.16	-616.82	1107	170.46	-756.2	1020.8	333.41	-542.86	725.11	495	-470.81	659.52	457.04	-536.19	638.58	470.57	-474.48	748.72	477.71	-490.08	537.68	456.43	-483.16	546.66	327.4	-496.92	304.27	440.79	-424.28	252.27	425.25	-487.16	228.7	423	-436	326.51	441.26	-429.89	104.39	395.22	-405.45	121.49	315.21	-476.01	67.404	334.52	-462.05	41.49	303.03	-470.94	34.404	366.99	-298.66	43.031	424.21	-268.07	76.393	314.15	-209.9	98.286	368.66	-665.74	710.92	159.9	-625.96	614.97	196.88	-699.83	627.5	172.08	-595.72	704.27	179.47	-748.33	540.92	187.69	-692.97	520.72	296.78	-927.6	397.09	210.26	-925.83	310.77	202.13	-977.94	346.69	229.49	-874.87	361.44	188.46	-1035.9	207.91	223.85	-1007.8	213.98	310.05	-1101.9	245.78	271.28	-1120.2	231.12	306.69	-1121.7	225	245.18	-1037.4	68.559	217.83	-1018.8	70.29	336.02	-966.85	35.431	287.89	-721.29	1528.3	340.16	-759.36	1250.5	333.9
192	0.79583	-512.93	1281.9	342.71	-658.64	1475.8	515.87	-662.67	1480.7	164.09	-628.46	1797.9	343.84	-535.6	1047.8	458.95	-535.73	1034.5	205.32	NaN	NaN	NaN	-737.74	1058	289.63	-585.79	972.57	510.44	-644.92	964.97	154.76	-626.14	1110.5	494.56	-611.03	1107.1	170.82	-750.57	1021.2	333.81	-537.87	725.75	495.91	-465.89	659.97	458.19	-531.37	639.2	471.51	-469.41	749.15	478.91	-485.59	538.05	457.31	-477.96	547.27	328.44	-494.12	304.64	441.47	-421.91	252.13	425.84	-484.99	229.02	423.58	-433	326.41	441.94	-428.86	104.29	395.51	-404.36	121.41	315.56	-475.39	67.725	334.71	-461.74	41.853	303.18	-470.65	34.649	367.12	-298.18	41.916	424.38	-267.36	74.978	314.05	-208.86	96.083	368.53	-657.35	710.23	159.64	-616.54	614.58	196.29	-690.58	626.43	171.57	-587.2	704.24	179.13	-738.34	539.78	186.82	-682.69	519.33	295.81	-918.61	398.18	209.2	-918.56	311.96	201.18	-969.54	348.4	228.44	-866.32	361.86	187.51	-1029.2	210.46	222.81	-1001.3	216.17	309.07	-1093.6	250.52	270.03	-1112.3	236.57	305.49	-1114.1	230.2	244.07	-1034.6	70.959	217.45	-1015.7	72.586	335.44	-965.45	34.786	287.49	-715.77	1528.7	340.66	-753.66	1250.9	334.34
193	0.8	-507.36	1282.4	342.94	-652.85	1476.3	516.27	-657.33	1481.2	164.49	-623.1	1798.4	344.27	-530.04	1048.6	459.6	-530.13	1034.8	205.99	NaN	NaN	NaN	-732.14	1058.3	289.94	-580.46	973.45	511.09	-638.82	964.74	155.41	-620.65	1111.1	494.96	-605.29	1107.3	171.19	-744.99	1021.6	334.22	-532.96	726.36	496.81	-461.06	660.4	459.34	-526.64	639.81	472.43	-464.41	749.55	480.14	-481.17	538.41	458.16	-472.83	547.87	329.46	-491.37	305.02	442.14	-419.6	251.99	426.38	-482.88	229.36	424.13	-430.05	326.31	442.59	-427.9	104.22	395.77	-403.33	121.36	315.88	-474.82	68.021	334.89	-461.47	42.19	303.32	-470.39	34.881	367.24	-297.75	40.937	424.54	-266.72	73.654	313.91	-207.91	94.019	368.36	-648.86	709.55	159.38	-607.03	614.23	195.77	-681.22	625.37	171.08	-578.62	704.23	178.86	-728.2	538.63	185.96	-672.37	518	294.92	-909.42	399.25	208.09	-911.03	313.12	200.25	-960.94	350.09	227.34	-857.55	362.27	186.59	-1022.3	213.02	221.76	-994.54	218.38	308.12	-1085.1	255.2	268.75	-1104.1	241.96	304.23	-1106.1	235.36	242.91	-1031.6	73.467	217.03	-1012.4	74.968	334.82	-963.86	34.154	287.06	-710.26	1529.2	341.14	-748.02	1251.4	334.77
